<?xml version="1.0" encoding="utf-8"?>
<!-- Generator: Adobe Illustrator 23.0.1, SVG Export Plug-In . SVG Version: 6.00 Build 0)  -->
<svg version="1.1" id="Layer_1" focusable="false" xmlns="http://www.w3.org/2000/svg" xmlns:xlink="http://www.w3.org/1999/xlink"
	 x="0px" y="0px" viewBox="0 0 448 512" style="enable-background:new 0 0 448 512;" xml:space="preserve">
<style type="text/css">
	.st0{fill:#FFFFFF;}
</style>
<path class="st0" d="M186.5,293c0,19.3-14,25.4-31.2,25.4h-45.1v-52.9h46C174.8,265.6,186.5,273.3,186.5,293L186.5,293z
	 M178.8,210.7c0-17.7-13.7-21.9-28.9-21.9h-39.6v44.8H153C168.1,233.6,178.8,227,178.8,210.7L178.8,210.7z M311.1,233.9
	c-18.3,0-30.5,11.4-31.7,29.7h62.2C339.9,245.1,330.3,233.9,311.1,233.9L311.1,233.9z M448,80v352c0,26.5-21.5,48-48,48H48
	c-26.5,0-48-21.5-48-48V80c0-26.5,21.5-48,48-48h352C426.5,32,448,53.5,448,80z M271.7,185h77.8v-18.9h-77.8V185z M228.7,295.3
	c0-24.1-11.4-44.9-35-51.6c17.2-8.2,26.2-17.7,26.2-37c0-38.2-28.5-47.5-61.4-47.5H68v192h93.1C196,351,228.7,334.3,228.7,295.3z
	 M380,280.5c0-41.1-24.1-75.4-67.6-75.4c-42.4,0-71.1,31.8-71.1,73.6c0,43.3,27.3,73,71.1,73c33.2,0,54.7-14.9,65.1-46.8h-33.7
	c-3.7,11.9-18.6,18.1-30.2,18.1c-22.4,0-34.1-13.1-34.1-35.3h100.2C379.8,285.4,380,282.9,380,280.5L380,280.5z"/>
</svg>
