<svg id="Capa_1" data-name="Capa 1" xmlns="http://www.w3.org/2000/svg" viewBox="0 0 736.96 168.27"><defs><style>.cls-1{fill:#fff;}</style></defs><title>Ruben_Terre_Logo_blanco_131119</title><path class="cls-1" d="M198.28,22H137.41l-.06,23.08V146.53h-2.06c-4.28,0-7.6-.41-9.74-4.78l-13.43-28.49a16.35,16.35,0,0,0-6.81-7.49v-.41c5.84-1.25,23-12.27,23-38.89,0-27.86-17.71-44.5-43-44.5H64.41V45l17.73,0c12.46,0,20,8.32,20,22.88,0,14.76-7.59,23.29-20.44,23.29l-17.32.11v23.18h9.93c7.2,0,10.12,1,13,6.86l17.71,37.22c4.48,9.36,9,11,19.28,11h38.46V45.05h21.22c2.73,0,4.28,1.67,4.28,4.58v8.94h22.39V35.28c0-9.77-3.11-13.31-12.46-13.31" transform="translate(-64.41 -1.35)"/><path class="cls-1" d="M246.79,53.64h11.77q13.69,0,13.7-12t-13.7-12H246.79Zm25,31.3L255.55,59.47h-8.76V84.94h-8V22.6h20.51q10.62,0,15.92,5.08t5.31,13.49q0,7.61-4.25,12.25T264,59.21l17,25.73Z" transform="translate(-64.41 -1.35)"/><path class="cls-1" d="M301.22,22.6V60q0,9.21,4.07,13.58T316.52,78q7.08,0,11.06-4.43t4-13.53V22.6h8.05V60q0,12.73-6.32,19.15t-16.93,6.41q-10.53,0-16.85-6.41T293.18,60V22.6Z" transform="translate(-64.41 -1.35)"/><path class="cls-1" d="M373.4,78.22q6.38,0,9.86-2.92a10.1,10.1,0,0,0,3.5-8.22,10.06,10.06,0,0,0-3.58-8.18q-3.58-3-9.95-3H359.79V78.22Zm-13.61-28.3h13.44q5.92,0,9.06-2.74a9.68,9.68,0,0,0,3.14-7.69A9.55,9.55,0,0,0,382.34,32q-3.1-2.74-9.47-2.74H359.79Zm22.37,2.74a16.37,16.37,0,0,1,9.33,5.49,15,15,0,0,1,3.58,10,15.51,15.51,0,0,1-5.17,12.2q-5.17,4.6-15,4.6H351.74V22.6h22.81q9.38,0,14.24,4.15t4.86,11.41a14.32,14.32,0,0,1-3.22,9.73A14.59,14.59,0,0,1,382.16,52.66Z" transform="translate(-64.41 -1.35)"/><path class="cls-1" d="M438.55,8.36,419.72,18.71V13L438.55,1.82ZM414.86,29.14V50.46h23.69v6.18H414.86V78.4h26.35v6.54h-34.4V22.6h34.4v6.54Z" transform="translate(-64.41 -1.35)"/><polygon class="cls-1" points="435.94 83.59 427.89 83.59 395.53 34.34 395.53 83.59 387.48 83.59 387.48 21.25 395.53 21.25 427.89 70.6 427.89 21.25 435.94 21.25 435.94 83.59"/><polygon class="cls-1" points="517.57 20.78 517.57 27.32 499.97 27.32 499.97 83.12 491.93 83.12 491.93 27.32 474.33 27.32 474.33 20.78 517.57 20.78"/><polygon class="cls-1" points="540.65 27.32 540.65 48.64 564.35 48.64 564.35 54.83 540.65 54.83 540.65 76.58 567 76.58 567 83.12 532.6 83.12 532.6 20.78 567 20.78 567 27.32 540.65 27.32"/><path class="cls-1" d="M656.88,53.17h11.76q13.71,0,13.7-12t-13.7-12H656.88Zm25,31.3L665.63,59h-8.75V84.47h-8V22.13h20.52q10.6,0,15.91,5.08t5.31,13.49q0,7.61-4.25,12.24T674,58.74l17,25.73Z" transform="translate(-64.41 -1.35)"/><path class="cls-1" d="M715.51,53.17h11.76q13.71,0,13.7-12t-13.7-12H715.51Zm25,31.3L724.26,59h-8.75V84.47h-8V22.13H728q10.62,0,15.92,5.08T749.2,40.7q0,7.61-4.25,12.24t-12.29,5.8l17,25.73Z" transform="translate(-64.41 -1.35)"/><path class="cls-1" d="M797.84,7.89,779,18.24V12.49L797.84,1.35Zm-23.7,20.78V50h23.7v6.19h-23.7V77.93h26.35v6.54h-34.4V22.13h34.4v6.54Z" transform="translate(-64.41 -1.35)"/><path class="cls-1" d="M250.65,164.64q7.41,0,11.33-3.82t3.93-10.74q0-6.93-3.9-10.78t-11.36-3.84h-6.77v29.18Zm20.25-14.56a20.77,20.77,0,0,1-2.31,10,15.8,15.8,0,0,1-6.79,6.6A23.06,23.06,0,0,1,251,169H239V131.16h12a23.44,23.44,0,0,1,10.78,2.29,15.47,15.47,0,0,1,6.79,6.55A20.9,20.9,0,0,1,270.9,150.08Z" transform="translate(-64.41 -1.35)"/><rect class="cls-1" x="210.96" y="129.82" width="4.89" height="37.88"/><path class="cls-1" d="M309.91,159.21a10.1,10.1,0,0,1-1.29,5A9.75,9.75,0,0,1,304.7,168a13.41,13.41,0,0,1-6.5,1.45,15.65,15.65,0,0,1-6.69-1.37,12.07,12.07,0,0,1-4.68-3.76,10.7,10.7,0,0,1-2-5.46H290a7.49,7.49,0,0,0,1.1,3.15,7.28,7.28,0,0,0,2.69,2.52,8.42,8.42,0,0,0,4.22,1,6.71,6.71,0,0,0,4.94-1.72,6,6,0,0,0,1.72-4.41,5.66,5.66,0,0,0-1.21-3.76,8.51,8.51,0,0,0-3-2.28,39,39,0,0,0-4.84-1.8,48.78,48.78,0,0,1-5.77-2.23,9.87,9.87,0,0,1-3.71-3.15,9.15,9.15,0,0,1-1.53-5.53,9.53,9.53,0,0,1,1.42-5.21,9.25,9.25,0,0,1,4.09-3.49,14.58,14.58,0,0,1,6.25-1.24q5.59,0,8.87,2.71a10.38,10.38,0,0,1,3.82,6.91h-5.27a7.17,7.17,0,0,0-2.31-4,7.31,7.31,0,0,0-5.11-1.72,7,7,0,0,0-4.72,1.53,5.43,5.43,0,0,0-1.78,4.33,5.34,5.34,0,0,0,1.16,3.57,8.13,8.13,0,0,0,2.87,2.15,48.27,48.27,0,0,0,4.73,1.75,47.91,47.91,0,0,1,5.89,2.25,10,10,0,0,1,3.78,3.25A9.72,9.72,0,0,1,309.91,159.21Z" transform="translate(-64.41 -1.35)"/><polygon class="cls-1" points="254.8 133.79 254.8 146.74 269.2 146.74 269.2 150.5 254.8 150.5 254.8 163.72 270.81 163.72 270.81 167.69 249.91 167.69 249.91 129.82 270.81 129.82 270.81 133.79 254.8 133.79"/><path class="cls-1" d="M350.85,122.35a4.31,4.31,0,0,1,1.83.38,11.11,11.11,0,0,1,1.77,1.07,14.84,14.84,0,0,0,1.53.92,3.05,3.05,0,0,0,1.32.26,2.09,2.09,0,0,0,1.58-.64,3.16,3.16,0,0,0,.78-1.88h2.74a7.38,7.38,0,0,1-1.74,4.14,4.6,4.6,0,0,1-3.47,1.45,4.76,4.76,0,0,1-2-.38,12.47,12.47,0,0,1-1.85-1.07,8.18,8.18,0,0,0-1.4-.86,3,3,0,0,0-1.29-.27c-1.33,0-2.09.84-2.31,2.52h-2.69a7.78,7.78,0,0,1,1.75-4.24A4.48,4.48,0,0,1,350.85,122.35ZM368.8,169h-4.89l-19.67-29.92V169h-4.89V131.16h4.89l19.67,30v-30h4.89Z" transform="translate(-64.41 -1.35)"/><path class="cls-1" d="M391.85,135.25a13.69,13.69,0,0,0-7,1.8A12.46,12.46,0,0,0,380,142.2a18.53,18.53,0,0,0,0,15.72,12.39,12.39,0,0,0,4.83,5.19,13.78,13.78,0,0,0,7,1.79,13.38,13.38,0,0,0,6.95-1.82,12.65,12.65,0,0,0,4.84-5.19,16.75,16.75,0,0,0,1.75-7.81,16.92,16.92,0,0,0-1.75-7.88,12.48,12.48,0,0,0-4.84-5.15A13.56,13.56,0,0,0,391.85,135.25Zm0-4.57a18.37,18.37,0,0,1,9.48,2.47,17.57,17.57,0,0,1,6.63,6.91,22,22,0,0,1,0,20,17.61,17.61,0,0,1-6.63,6.9,18.37,18.37,0,0,1-9.48,2.47,18.69,18.69,0,0,1-9.54-2.47,17.49,17.49,0,0,1-6.69-6.9,22,22,0,0,1,0-20,17.45,17.45,0,0,1,6.69-6.91A18.69,18.69,0,0,1,391.85,130.68Z" transform="translate(-64.41 -1.35)"/><path class="cls-1" d="M443.16,130.79a18.33,18.33,0,0,1,11.09,3.27A16,16,0,0,1,460.3,143h-5.16a11.61,11.61,0,0,0-4.49-5.53,13.05,13.05,0,0,0-7.44-2.1,13.41,13.41,0,0,0-6.93,1.8,12.58,12.58,0,0,0-4.81,5.14,16.7,16.7,0,0,0-1.74,7.84,16.9,16.9,0,0,0,1.77,8,12.54,12.54,0,0,0,4.91,5.16,14.31,14.31,0,0,0,7.23,1.8,13.69,13.69,0,0,0,6.39-1.51,12.33,12.33,0,0,0,4.76-4.38,14.92,14.92,0,0,0,2.23-6.74H442.14v-3.65h19v4.51a19,19,0,0,1-2.8,8.17,16.8,16.8,0,0,1-6.23,5.8,18.28,18.28,0,0,1-8.92,2.15,18.83,18.83,0,0,1-9.67-2.45,17,17,0,0,1-6.53-6.82,22.62,22.62,0,0,1,0-20,17.23,17.23,0,0,1,6.53-6.85A18.54,18.54,0,0,1,443.16,130.79Z" transform="translate(-64.41 -1.35)"/><path class="cls-1" d="M470.51,150h7.14q8.33,0,8.33-7.3t-8.33-7.31h-7.14Zm15.2,19-9.89-15.47h-5.31V169h-4.9V131.16h12.47q6.45,0,9.67,3.09a10.83,10.83,0,0,1,3.23,8.2,10.64,10.64,0,0,1-2.58,7.44,12.07,12.07,0,0,1-7.47,3.52L491.24,169Z" transform="translate(-64.41 -1.35)"/><path class="cls-1" d="M517.46,122.51,506,128.8v-3.49l11.44-6.77Zm-1.88,34-6.93-19.13-6.93,19.13Zm1.4,3.81H500.32L497.15,169h-5.26l14-37.18h5.54l14,37.18h-5.26Z" transform="translate(-64.41 -1.35)"/><polygon class="cls-1" points="485.24 129.82 485.24 133.79 468.69 133.79 468.69 146.9 482.71 146.9 482.71 150.72 468.69 150.72 468.69 167.69 463.8 167.69 463.8 129.82 485.24 129.82"/><rect class="cls-1" x="488.89" y="129.82" width="4.89" height="37.88"/><path class="cls-1" d="M580.65,130.79a18.4,18.4,0,0,1,11.44,3.41,17.33,17.33,0,0,1,6.23,9.32h-5.15a12.66,12.66,0,0,0-4.68-6,13.52,13.52,0,0,0-7.9-2.23,12.15,12.15,0,0,0-11.25,7,17.25,17.25,0,0,0-1.69,7.87,17,17,0,0,0,1.69,7.79,12.53,12.53,0,0,0,4.62,5.13,12.39,12.39,0,0,0,6.63,1.8,13.52,13.52,0,0,0,7.9-2.23,12.66,12.66,0,0,0,4.68-6h5.15a17.33,17.33,0,0,1-6.23,9.32,18.4,18.4,0,0,1-11.44,3.41,18,18,0,0,1-9.41-2.44,16.82,16.82,0,0,1-6.36-6.82,21.3,21.3,0,0,1-2.29-10,21.57,21.57,0,0,1,2.29-10,16.84,16.84,0,0,1,6.36-6.85A18,18,0,0,1,580.65,130.79Z" transform="translate(-64.41 -1.35)"/><path class="cls-1" d="M620.08,135.25a13.68,13.68,0,0,0-7,1.8,12.46,12.46,0,0,0-4.83,5.15,18.53,18.53,0,0,0,0,15.72,12.39,12.39,0,0,0,4.83,5.19,13.77,13.77,0,0,0,7,1.79,13.39,13.39,0,0,0,7-1.82,12.72,12.72,0,0,0,4.84-5.19,16.74,16.74,0,0,0,1.74-7.81,16.92,16.92,0,0,0-1.74-7.88,12.55,12.55,0,0,0-4.84-5.15A13.57,13.57,0,0,0,620.08,135.25Zm0-4.57a18.4,18.4,0,0,1,9.49,2.47,17.57,17.57,0,0,1,6.63,6.91,22,22,0,0,1,0,20,17.61,17.61,0,0,1-6.63,6.9,18.4,18.4,0,0,1-9.49,2.47,18.65,18.65,0,0,1-9.53-2.47,17.49,17.49,0,0,1-6.69-6.9,22,22,0,0,1,0-20,17.45,17.45,0,0,1,6.69-6.91A18.65,18.65,0,0,1,620.08,130.68Z" transform="translate(-64.41 -1.35)"/><path class="cls-1" d="M663.55,165.23a6.64,6.64,0,0,0,4.86-1.88,6.52,6.52,0,0,0,1.91-4.84,6.68,6.68,0,0,0-1.08-3.71,7.82,7.82,0,0,0-2.79-2.63,7.31,7.31,0,0,0-3.6-1,6.28,6.28,0,0,0-4.59,1.78,6.76,6.76,0,0,0-1.8,5.05,6.9,6.9,0,0,0,2,5.26A7.05,7.05,0,0,0,663.55,165.23Zm18,3.81-8.27-9.13a9,9,0,0,1-.33,2.15,8.48,8.48,0,0,1-3.17,5.32,9.72,9.72,0,0,1-6.23,2,12,12,0,0,1-5.91-1.43,10.19,10.19,0,0,1-4-4,11.65,11.65,0,0,1-1.45-5.88,12,12,0,0,1,1.32-5.78,9.13,9.13,0,0,1,3.51-3.71,9.68,9.68,0,0,1,4.89-1.26,9.29,9.29,0,0,1,1.19.11l-.81-1A17.41,17.41,0,0,1,660,143a8.83,8.83,0,0,1-.78-3.84,8,8,0,0,1,4.4-7.2,11,11,0,0,1,5.27-1.18q4.62,0,7.06,2.31a9.3,9.3,0,0,1,2.88,5.8,9.35,9.35,0,0,1,.32,2.42,5,5,0,0,1,0,.8h-4.62a5,5,0,0,0,0-.88c0-.34,0-.58,0-.73a5.86,5.86,0,0,0-1.51-4.16,5.38,5.38,0,0,0-4-1.48,5,5,0,0,0-3.73,1.4,4.66,4.66,0,0,0-1.37,3.38,6.12,6.12,0,0,0,.62,2.85,15.11,15.11,0,0,0,2,2.79L686.55,169Z" transform="translate(-64.41 -1.35)"/><polygon class="cls-1" points="681.99 129.82 672.38 167.69 666.41 167.69 657.65 136.75 648.9 167.69 642.93 167.69 633.26 129.82 638.69 129.82 645.94 162 654.91 129.82 660.34 129.82 669.31 161.89 676.62 129.82 681.99 129.82"/><polygon class="cls-1" points="690.48 133.79 690.48 146.74 704.88 146.74 704.88 150.5 690.48 150.5 690.48 163.72 706.49 163.72 706.49 167.69 685.59 167.69 685.59 129.82 706.49 129.82 706.49 133.79 690.48 133.79"/><path class="cls-1" d="M788.2,165a9.09,9.09,0,0,0,6-1.77,6.18,6.18,0,0,0,2.12-5,6.1,6.1,0,0,0-2.17-5,9.23,9.23,0,0,0-6-1.8h-8.17V165Zm-8.28-17.19h8.17a8.14,8.14,0,0,0,5.51-1.67,5.88,5.88,0,0,0,1.91-4.67,5.8,5.8,0,0,0-1.88-4.57c-1.26-1.11-3.17-1.67-5.75-1.67h-8Zm13.6,1.66a9.9,9.9,0,0,1,5.67,3.33,9.13,9.13,0,0,1,2.17,6.07,9.43,9.43,0,0,1-3.14,7.42c-2.1,1.86-5.13,2.79-9.11,2.79H775V131.16H788.9c3.8,0,6.68.85,8.65,2.53a9.74,9.74,0,0,1,1,12.84A8.91,8.91,0,0,1,793.52,149.43Z" transform="translate(-64.41 -1.35)"/></svg>