<?xml version="1.0" encoding="UTF-8"?>
<svg width="72px" height="72px" viewBox="0 0 72 72" version="1.1" xmlns="http://www.w3.org/2000/svg" xmlns:xlink="http://www.w3.org/1999/xlink">
    <title>6963 - Museum Building I</title>
    <g id="Page-1" stroke="none" stroke-width="1" fill="none" fill-rule="evenodd">
        <g id="Galaxy-S10_-Mercurio" transform="translate(-12.000000, -683.000000)">
            <g id="nav_abajo" transform="translate(-1.000000, 683.000000)">
                <g id="6963---Museum-Building-I" transform="translate(13.000000, 0.000000)">
                    <circle id="Oval" stroke="#FFFFFF" stroke-width="3" fill="#DFD7C3" cx="36" cy="36" r="34.5"></circle>
                    <g id="_492738384" transform="translate(20.000000, 11.000000)">
                        <polygon id="_492741792" fill="#838383" points="0.819635368 9.71516667 15.9101558 0.288879167 31.0006821 9.71516667"></polygon>
                        <polygon id="_492742296" fill="#A7A7A7" points="5.16776421 8.47074167 26.6525474 8.47074167 15.9101558 1.76048333"></polygon>
                        <rect id="_492741936" fill="#A7A7A7" x="1.44842105" y="9.62224167" width="28.9235284" height="2.79953917"></rect>
                        <rect id="_492741312" fill="#838383" x="2.70594526" y="25.8529667" width="26.4084211" height="3.68041917"></rect>
                        <rect id="_492741072" fill="#A7A7A7" x="1.44842105" y="27.69315" width="28.9235284" height="1.8402125"></rect>
                        <g id="Group" transform="translate(0.000000, 10.000000)">
                            <polygon id="_492741216" fill="#A7A7A7" points="3.99365053 3.184425 6.88272 3.184425 6.88272 6.95946667 6.88272 15.0902 3.99365053 15.0902 3.99365053 6.95946667"></polygon>
                            <path d="M6.34553263,7.11504167 L6.34553263,3.86047917 C6.34553263,3.79121417 6.28879001,3.73508525 6.21879579,3.73508525 C6.14882467,3.73508525 6.09208194,3.79121387 6.09208194,3.86047917 L6.09208194,7.11504167 L6.09208194,14.414175 C6.09208194,14.48344 6.14882456,14.5395689 6.21879579,14.5395689 C6.28878989,14.5395689 6.34553263,14.4834403 6.34553263,14.414175 L6.34553263,7.11504167 L6.34553263,7.11504167 Z M4.78138779,7.11504167 L4.78138779,3.86047917 C4.78138779,3.79121417 4.72464517,3.73508525 4.65467394,3.73508525 C4.58467983,3.73508525 4.52796008,3.79121387 4.52796008,3.86047917 L4.52796008,7.11504167 L4.52796008,14.414175 C4.52796008,14.48344 4.58467954,14.5395689 4.65467394,14.5395689 C4.72464505,14.5395689 4.78138779,14.4834403 4.78138779,14.414175 L4.78138779,7.11504167 L4.78138779,7.11504167 Z M5.30277019,7.11504167 L5.30277019,3.86047917 C5.30277019,3.79121417 5.24602757,3.73508525 5.17605634,3.73508525 C5.10606223,3.73508525 5.04931949,3.79121387 5.04931949,3.86047917 L5.04931949,7.11504167 L5.04931949,14.414175 C5.04931949,14.48344 5.10606211,14.5395689 5.17605634,14.5395689 C5.24602745,14.5395689 5.30277019,14.4834403 5.30277019,14.414175 L5.30277019,7.11504167 L5.30277019,7.11504167 Z M5.82415259,7.11504167 L5.82415259,3.86047917 C5.82415259,3.79121417 5.76740997,3.73508525 5.69743874,3.73508525 C5.62744463,3.73508525 5.57070189,3.79121387 5.57070189,3.86047917 L5.57070189,7.11504167 L5.57070189,14.414175 C5.57070189,14.48344 5.62744451,14.5395689 5.69743874,14.5395689 C5.76740985,14.5395689 5.82415259,14.4834403 5.82415259,14.414175 L5.82415259,7.11504167 L5.82415259,7.11504167 Z" id="_492741576" fill="#838383"></path>
                            <g>
                                <g transform="translate(0.000000, 11.666667)">
                                    <path d="M7.68157474,4.18624167 L6.81883284,4.18624167 L4.05752,4.18624167 L3.19477811,4.18624167 C3.1804358,4.18624167 3.16918009,4.18571345 3.15414156,4.18624167 C2.94511065,4.18624167 2.75585246,4.10239333 2.61888118,3.9668255 C2.48188632,3.83125767 2.39715537,3.64397092 2.39715537,3.43714075 C2.39715537,3.23031 2.48188632,3.04302325 2.61888118,2.907456 C2.75585246,2.7719115 2.94511065,2.68803983 3.15414156,2.68803983 C3.35660514,2.68803983 3.54064118,2.76699633 3.67656851,2.89551342 C3.78508707,2.99812525 3.86283276,3.13242958 3.89469676,3.28340733 L3.99363107,3.28340733 L4.05752177,3.28340733 L6.81883461,3.28340733 L6.88272531,3.28340733 L6.98165962,3.28340733 C7.01352368,3.13240683 7.09126931,2.99812525 7.19978787,2.89551342 C7.33569162,2.76699633 7.51972825,2.68803983 7.72221482,2.68803983 C7.93124573,2.68803983 8.12048093,2.7719115 8.2574752,2.907456 C8.39447006,3.04302383 8.47920101,3.23031058 8.47920101,3.43714075 C8.47920101,3.6439715 8.39447006,3.83125825 8.2574752,3.9668255 C8.12048034,4.10239333 7.93124573,4.18624167 7.72221482,4.18624167 C7.70717629,4.18571345 7.69592058,4.18624167 7.68157827,4.18624167 L7.68157474,4.18624167 Z" id="_492741432" fill="#838383"></path>
                                    <path d="M3.41714526,3.1692 C3.4854688,3.2367885 3.52772935,3.33019067 3.52772935,3.43330767 C3.52772935,3.53642467 3.48546827,3.62982683 3.41714526,3.69741533 C3.34884531,3.76500383 3.25448295,3.80682475 3.15028051,3.80682475 C3.04605507,3.80682475 2.95169272,3.76500389 2.88339276,3.69741533 C2.8150928,3.62982683 2.77283166,3.53644742 2.77283166,3.43330767 C2.77283166,3.33019067 2.81509274,3.2367885 2.88339276,3.1692 C2.95169272,3.1016115 3.04605507,3.05979058 3.15028051,3.05979058 C3.25448295,3.05979058 3.34884472,3.10161144 3.41714526,3.1692 Z" id="_492740880" fill="#A7A7A7"></path>
                                    <path d="M8.10352,3.43333333 C8.10352,3.53645033 8.06125892,3.62982917 7.99295891,3.697441 C7.92465895,3.7650295 7.8302736,3.80685042 7.72607116,3.80685042 C7.62186872,3.80685042 7.52750695,3.76502956 7.45918341,3.697441 C7.39088345,3.6298525 7.34862232,3.53647308 7.34862232,3.43333333 C7.34862232,3.33021633 7.39088339,3.23681417 7.45918341,3.16922567 C7.52750695,3.10163717 7.62186872,3.05981625 7.72607116,3.05981625 C7.8302736,3.05981625 7.92465895,3.10163711 7.99295891,3.16922567 C8.06125886,3.23681417 8.10352,3.33019358 8.10352,3.43333333 Z" id="_492741504" fill="#A7A7A7"></path>
                                </g>
                                <g>
                                    <path d="M7.68157474,2.421775 L6.81883284,2.421775 L4.05752,2.421775 L3.19477811,2.421775 C3.1804358,2.421775 3.16918009,2.42230322 3.15414156,2.421775 C2.94511065,2.421775 2.75585246,2.50562333 2.61888118,2.64119117 C2.48188632,2.776759 2.39715537,2.96402242 2.39715537,3.17087592 C2.39715537,3.37770667 2.48188632,3.56499342 2.61888118,3.70056067 C2.75585246,3.83610517 2.94511065,3.91997683 3.15414156,3.91997683 C3.35660514,3.91997683 3.54064118,3.84102033 3.67656851,3.71250325 C3.78508707,3.60989142 3.86283276,3.47558708 3.89469676,3.32460933 L3.99363107,3.32460933 L4.05752177,3.32460933 L6.81883461,3.32460933 L6.88272531,3.32460933 L6.98165962,3.32460933 C7.01352368,3.47560983 7.09126931,3.60989142 7.19978787,3.71250325 C7.33569162,3.84102033 7.51972825,3.91997683 7.72221482,3.91997683 C7.93124573,3.91997683 8.12048093,3.83610517 8.2574752,3.70056067 C8.39447006,3.56499283 8.47920101,3.37770608 8.47920101,3.17087592 C8.47920101,2.96402242 8.39447006,2.77675842 8.2574752,2.64119117 C8.12048034,2.50562333 7.93124573,2.421775 7.72221482,2.421775 C7.70717629,2.42230322 7.69592058,2.421775 7.68157827,2.421775 L7.68157474,2.421775 Z" id="_492740448" fill="#838383"></path>
                                    <path d="M3.41714526,3.43881667 C3.4854688,3.37120483 3.52772935,3.277826 3.52772935,3.174709 C3.52772935,3.071592 3.48546827,2.97818983 3.41714526,2.91060133 C3.34884531,2.84301283 3.25448295,2.80119192 3.15028051,2.80119192 C3.04605507,2.80119192 2.95169272,2.84301278 2.88339276,2.91060133 C2.8150928,2.97818983 2.77283166,3.07156925 2.77283166,3.174709 C2.77283166,3.277826 2.81509274,3.37120483 2.88339276,3.43881667 C2.95169272,3.50640517 3.04605507,3.54822608 3.15028051,3.54822608 C3.25448295,3.54822608 3.34884472,3.50640523 3.41714526,3.43881667 Z" id="_492740184" fill="#A7A7A7"></path>
                                    <path d="M8.10352,3.17468333 C8.10352,3.07156633 8.06125892,2.97816417 7.99295891,2.91057567 C7.92465895,2.84298717 7.8302736,2.80116625 7.72607116,2.80116625 C7.62186872,2.80116625 7.52750695,2.84298711 7.45918341,2.91057567 C7.39088345,2.97816417 7.34862232,3.07154358 7.34862232,3.17468333 C7.34862232,3.27780033 7.39088339,3.3712025 7.45918341,3.438791 C7.52750695,3.5063795 7.62186872,3.54820042 7.72607116,3.54820042 C7.8302736,3.54820042 7.92465895,3.50637956 7.99295891,3.438791 C8.06125886,3.3712025 8.10352,3.27782308 8.10352,3.17468333 Z" id="_492740256" fill="#A7A7A7"></path>
                                </g>
                            </g>
                            <polygon id="_492740304" fill="#A7A7A7" points="14.4656505 3.184425 17.35472 3.184425 17.35472 6.95946667 17.35472 15.0902 14.4656505 15.0902 14.4656505 6.95946667"></polygon>
                            <path d="M16.8175326,7.11504167 L16.8175326,3.86047917 C16.8175326,3.79121417 16.76079,3.73508525 16.6907958,3.73508525 C16.6208247,3.73508525 16.5640819,3.79121387 16.5640819,3.86047917 L16.5640819,7.11504167 L16.5640819,14.414175 C16.5640819,14.48344 16.6208246,14.5395689 16.6907958,14.5395689 C16.7607899,14.5395689 16.8175326,14.4834403 16.8175326,14.414175 L16.8175326,7.11504167 L16.8175326,7.11504167 Z M15.2533878,7.11504167 L15.2533878,3.86047917 C15.2533878,3.79121417 15.1966452,3.73508525 15.1266739,3.73508525 C15.0566798,3.73508525 14.9999601,3.79121387 14.9999601,3.86047917 L14.9999601,7.11504167 L14.9999601,14.414175 C14.9999601,14.48344 15.0566795,14.5395689 15.1266739,14.5395689 C15.1966451,14.5395689 15.2533878,14.4834403 15.2533878,14.414175 L15.2533878,7.11504167 L15.2533878,7.11504167 Z M15.7747702,7.11504167 L15.7747702,3.86047917 C15.7747702,3.79121417 15.7180276,3.73508525 15.6480563,3.73508525 C15.5780622,3.73508525 15.5213195,3.79121387 15.5213195,3.86047917 L15.5213195,7.11504167 L15.5213195,14.414175 C15.5213195,14.48344 15.5780621,14.5395689 15.6480563,14.5395689 C15.7180275,14.5395689 15.7747702,14.4834403 15.7747702,14.414175 L15.7747702,7.11504167 L15.7747702,7.11504167 Z M16.2961526,7.11504167 L16.2961526,3.86047917 C16.2961526,3.79121417 16.23941,3.73508525 16.1694387,3.73508525 C16.0994446,3.73508525 16.0427019,3.79121387 16.0427019,3.86047917 L16.0427019,7.11504167 L16.0427019,14.414175 C16.0427019,14.48344 16.0994445,14.5395689 16.1694387,14.5395689 C16.2394099,14.5395689 16.2961526,14.4834403 16.2961526,14.414175 L16.2961526,7.11504167 L16.2961526,7.11504167 Z" id="_492740808" fill="#838383"></path>
                            <g transform="translate(10.105263, 0.000000)">
                                <g transform="translate(0.000000, 11.666667)">
                                    <path d="M8.04831158,4.18624167 L7.18556968,4.18624167 L4.42425684,4.18624167 L3.56151495,4.18624167 C3.54717264,4.18624167 3.53591693,4.18571345 3.5208784,4.18624167 C3.31184749,4.18624167 3.12258931,4.10239333 2.98561802,3.9668255 C2.84862316,3.83125767 2.76389221,3.64397092 2.76389221,3.43714075 C2.76389221,3.23031 2.84862316,3.04302325 2.98561802,2.907456 C3.12258931,2.7719115 3.31184749,2.68803983 3.5208784,2.68803983 C3.72334198,2.68803983 3.90737802,2.76699633 4.04330535,2.89551342 C4.15182392,2.99812525 4.2295696,3.13242958 4.2614336,3.28340733 L4.36036792,3.28340733 L4.42425861,3.28340733 L7.18557145,3.28340733 L7.24946215,3.28340733 L7.34839646,3.28340733 C7.38026052,3.13240683 7.45800615,2.99812525 7.56652472,2.89551342 C7.70242846,2.76699633 7.88646509,2.68803983 8.08895166,2.68803983 C8.29798257,2.68803983 8.48721777,2.7719115 8.62421204,2.907456 C8.76120691,3.04302383 8.84593785,3.23031058 8.84593785,3.43714075 C8.84593785,3.6439715 8.76120691,3.83125825 8.62421204,3.9668255 C8.48721718,4.10239333 8.29798257,4.18624167 8.08895166,4.18624167 C8.07391313,4.18571345 8.06265742,4.18624167 8.04831512,4.18624167 L8.04831158,4.18624167 Z" id="_492739584" fill="#838383"></path>
                                    <path d="M3.78388211,3.1692 C3.85220564,3.2367885 3.89446619,3.33019067 3.89446619,3.43330767 C3.89446619,3.53642467 3.85220511,3.62982683 3.78388211,3.69741533 C3.71558215,3.76500383 3.62121979,3.80682475 3.51701735,3.80682475 C3.41279192,3.80682475 3.31842956,3.76500389 3.2501296,3.69741533 C3.18182964,3.62982683 3.13956851,3.53644742 3.13956851,3.43330767 C3.13956851,3.33019067 3.18182958,3.2367885 3.2501296,3.1692 C3.31842956,3.1016115 3.41279192,3.05979058 3.51701735,3.05979058 C3.62121979,3.05979058 3.71558156,3.10161144 3.78388211,3.1692 Z" id="_492739968" fill="#A7A7A7"></path>
                                    <path d="M8.47025684,3.43333333 C8.47025684,3.53645033 8.42799576,3.62982917 8.35969575,3.697441 C8.29139579,3.7650295 8.19701044,3.80685042 8.092808,3.80685042 C7.98860556,3.80685042 7.89424379,3.76502956 7.82592025,3.697441 C7.75762029,3.6298525 7.71535916,3.53647308 7.71535916,3.43333333 C7.71535916,3.33021633 7.75762024,3.23681417 7.82592025,3.16922567 C7.89424379,3.10163717 7.98860556,3.05981625 8.092808,3.05981625 C8.19701044,3.05981625 8.29139579,3.10163711 8.35969575,3.16922567 C8.42799571,3.23681417 8.47025684,3.33019358 8.47025684,3.43333333 Z" id="_492739992" fill="#A7A7A7"></path>
                                </g>
                                <g>
                                    <path d="M8.04831158,2.421775 L7.18556968,2.421775 L4.42425684,2.421775 L3.56151495,2.421775 C3.54717264,2.421775 3.53591693,2.42230322 3.5208784,2.421775 C3.31184749,2.421775 3.12258931,2.50562333 2.98561802,2.64119117 C2.84862316,2.776759 2.76389221,2.96402242 2.76389221,3.17087592 C2.76389221,3.37770667 2.84862316,3.56499342 2.98561802,3.70056067 C3.12258931,3.83610517 3.31184749,3.91997683 3.5208784,3.91997683 C3.72334198,3.91997683 3.90737802,3.84102033 4.04330535,3.71250325 C4.15182392,3.60989142 4.2295696,3.47558708 4.2614336,3.32460933 L4.36036792,3.32460933 L4.42425861,3.32460933 L7.18557145,3.32460933 L7.24946215,3.32460933 L7.34839646,3.32460933 C7.38026052,3.47560983 7.45800615,3.60989142 7.56652472,3.71250325 C7.70242846,3.84102033 7.88646509,3.91997683 8.08895166,3.91997683 C8.29798257,3.91997683 8.48721777,3.83610517 8.62421204,3.70056067 C8.76120691,3.56499283 8.84593785,3.37770608 8.84593785,3.17087592 C8.84593785,2.96402242 8.76120691,2.77675842 8.62421204,2.64119117 C8.48721718,2.50562333 8.29798257,2.421775 8.08895166,2.421775 C8.07391313,2.42230322 8.06265742,2.421775 8.04831512,2.421775 L8.04831158,2.421775 Z" id="_492739560" fill="#838383"></path>
                                    <path d="M3.78388211,3.43881667 C3.85220564,3.37120483 3.89446619,3.277826 3.89446619,3.174709 C3.89446619,3.071592 3.85220511,2.97818983 3.78388211,2.91060133 C3.71558215,2.84301283 3.62121979,2.80119192 3.51701735,2.80119192 C3.41279192,2.80119192 3.31842956,2.84301278 3.2501296,2.91060133 C3.18182964,2.97818983 3.13956851,3.07156925 3.13956851,3.174709 C3.13956851,3.277826 3.18182958,3.37120483 3.2501296,3.43881667 C3.31842956,3.50640517 3.41279192,3.54822608 3.51701735,3.54822608 C3.62121979,3.54822608 3.71558156,3.50640523 3.78388211,3.43881667 Z" id="_492739512" fill="#A7A7A7"></path>
                                    <path d="M8.47025684,3.17468333 C8.47025684,3.07156633 8.42799576,2.97816417 8.35969575,2.91057567 C8.29139579,2.84298717 8.19701044,2.80116625 8.092808,2.80116625 C7.98860556,2.80116625 7.89424379,2.84298711 7.82592025,2.91057567 C7.75762029,2.97816417 7.71535916,3.07154358 7.71535916,3.17468333 C7.71535916,3.27780033 7.75762024,3.3712025 7.82592025,3.438791 C7.89424379,3.5063795 7.98860556,3.54820042 8.092808,3.54820042 C8.19701044,3.54820042 8.29139579,3.50637956 8.35969575,3.438791 C8.42799571,3.3712025 8.47025684,3.27782308 8.47025684,3.17468333 Z" id="_492739728" fill="#A7A7A7"></path>
                                </g>
                            </g>
                            <polygon id="_492738792" fill="#A7A7A7" points="24.9376505 3.184425 27.82672 3.184425 27.82672 6.95946667 27.82672 15.0902 24.9376505 15.0902 24.9376505 6.95946667"></polygon>
                            <path d="M27.2895326,7.11504167 L27.2895326,3.86047917 C27.2895326,3.79121417 27.23279,3.73508525 27.1627958,3.73508525 C27.0928247,3.73508525 27.0360819,3.79121387 27.0360819,3.86047917 L27.0360819,7.11504167 L27.0360819,14.414175 C27.0360819,14.48344 27.0928246,14.5395689 27.1627958,14.5395689 C27.2327899,14.5395689 27.2895326,14.4834403 27.2895326,14.414175 L27.2895326,7.11504167 L27.2895326,7.11504167 Z M25.7253878,7.11504167 L25.7253878,3.86047917 C25.7253878,3.79121417 25.6686452,3.73508525 25.5986739,3.73508525 C25.5286798,3.73508525 25.4719601,3.79121387 25.4719601,3.86047917 L25.4719601,7.11504167 L25.4719601,14.414175 C25.4719601,14.48344 25.5286795,14.5395689 25.5986739,14.5395689 C25.6686451,14.5395689 25.7253878,14.4834403 25.7253878,14.414175 L25.7253878,7.11504167 L25.7253878,7.11504167 Z M26.2467702,7.11504167 L26.2467702,3.86047917 C26.2467702,3.79121417 26.1900276,3.73508525 26.1200563,3.73508525 C26.0500622,3.73508525 25.9933195,3.79121387 25.9933195,3.86047917 L25.9933195,7.11504167 L25.9933195,14.414175 C25.9933195,14.48344 26.0500621,14.5395689 26.1200563,14.5395689 C26.1900275,14.5395689 26.2467702,14.4834403 26.2467702,14.414175 L26.2467702,7.11504167 L26.2467702,7.11504167 Z M26.7681526,7.11504167 L26.7681526,3.86047917 C26.7681526,3.79121417 26.71141,3.73508525 26.6414387,3.73508525 C26.5714446,3.73508525 26.5147019,3.79121387 26.5147019,3.86047917 L26.5147019,7.11504167 L26.5147019,14.414175 C26.5147019,14.48344 26.5714445,14.5395689 26.6414387,14.5395689 C26.7114099,14.5395689 26.7681526,14.4834403 26.7681526,14.414175 L26.7681526,7.11504167 L26.7681526,7.11504167 Z" id="_492739128" fill="#838383"></path>
                            <g transform="translate(21.052632, 0.000000)">
                                <g transform="translate(0.000000, 11.666667)">
                                    <path d="M7.57294316,4.18624167 L6.71020126,4.18624167 L3.94888842,4.18624167 L3.08614653,4.18624167 C3.07180422,4.18624167 3.06054851,4.18571345 3.04550998,4.18624167 C2.83647907,4.18624167 2.64722088,4.10239333 2.5102496,3.9668255 C2.37325474,3.83125767 2.28852379,3.64397092 2.28852379,3.43714075 C2.28852379,3.23031 2.37325474,3.04302325 2.5102496,2.907456 C2.64722088,2.7719115 2.83647907,2.68803983 3.04550998,2.68803983 C3.24797356,2.68803983 3.4320096,2.76699633 3.56793693,2.89551342 C3.67645549,2.99812525 3.75420118,3.13242958 3.78606518,3.28340733 L3.88499949,3.28340733 L3.94889019,3.28340733 L6.71020303,3.28340733 L6.77409373,3.28340733 L6.87302804,3.28340733 C6.9048921,3.13240683 6.98263773,2.99812525 7.09115629,2.89551342 C7.22706004,2.76699633 7.41109667,2.68803983 7.61358324,2.68803983 C7.82261415,2.68803983 8.01184935,2.7719115 8.14884362,2.907456 C8.28583848,3.04302383 8.37056943,3.23031058 8.37056943,3.43714075 C8.37056943,3.6439715 8.28583848,3.83125825 8.14884362,3.9668255 C8.01184876,4.10239333 7.82261415,4.18624167 7.61358324,4.18624167 C7.59854471,4.18571345 7.587289,4.18624167 7.57294669,4.18624167 L7.57294316,4.18624167 Z" id="_492738528" fill="#838383"></path>
                                    <path d="M3.30851368,3.1692 C3.37683722,3.2367885 3.41909777,3.33019067 3.41909777,3.43330767 C3.41909777,3.53642467 3.37683669,3.62982683 3.30851368,3.69741533 C3.24021373,3.76500383 3.14585137,3.80682475 3.04164893,3.80682475 C2.93742349,3.80682475 2.84306114,3.76500389 2.77476118,3.69741533 C2.70646122,3.62982683 2.66420008,3.53644742 2.66420008,3.43330767 C2.66420008,3.33019067 2.70646116,3.2367885 2.77476118,3.1692 C2.84306114,3.1016115 2.93742349,3.05979058 3.04164893,3.05979058 C3.14585137,3.05979058 3.24021314,3.10161144 3.30851368,3.1692 Z" id="_492738816" fill="#A7A7A7"></path>
                                    <path d="M7.99488842,3.43333333 C7.99488842,3.53645033 7.95262734,3.62982917 7.88432733,3.697441 C7.81602737,3.7650295 7.72164202,3.80685042 7.61743958,3.80685042 C7.51323714,3.80685042 7.41887537,3.76502956 7.35055183,3.697441 C7.28225187,3.6298525 7.23999074,3.53647308 7.23999074,3.43333333 C7.23999074,3.33021633 7.28225181,3.23681417 7.35055183,3.16922567 C7.41887537,3.10163717 7.51323714,3.05981625 7.61743958,3.05981625 C7.72164202,3.05981625 7.81602737,3.10163711 7.88432733,3.16922567 C7.95262728,3.23681417 7.99488842,3.33019358 7.99488842,3.43333333 Z" id="_492739200" fill="#A7A7A7"></path>
                                </g>
                                <g>
                                    <path d="M7.57294316,2.421775 L6.71020126,2.421775 L3.94888842,2.421775 L3.08614653,2.421775 C3.07180422,2.421775 3.06054851,2.42230322 3.04550998,2.421775 C2.83647907,2.421775 2.64722088,2.50562333 2.5102496,2.64119117 C2.37325474,2.776759 2.28852379,2.96402242 2.28852379,3.17087592 C2.28852379,3.37770667 2.37325474,3.56499342 2.5102496,3.70056067 C2.64722088,3.83610517 2.83647907,3.91997683 3.04550998,3.91997683 C3.24797356,3.91997683 3.4320096,3.84102033 3.56793693,3.71250325 C3.67645549,3.60989142 3.75420118,3.47558708 3.78606518,3.32460933 L3.88499949,3.32460933 L3.94889019,3.32460933 L6.71020303,3.32460933 L6.77409373,3.32460933 L6.87302804,3.32460933 C6.9048921,3.47560983 6.98263773,3.60989142 7.09115629,3.71250325 C7.22706004,3.84102033 7.41109667,3.91997683 7.61358324,3.91997683 C7.82261415,3.91997683 8.01184935,3.83610517 8.14884362,3.70056067 C8.28583848,3.56499283 8.37056943,3.37770608 8.37056943,3.17087592 C8.37056943,2.96402242 8.28583848,2.77675842 8.14884362,2.64119117 C8.01184876,2.50562333 7.82261415,2.421775 7.61358324,2.421775 C7.59854471,2.42230322 7.587289,2.421775 7.57294669,2.421775 L7.57294316,2.421775 Z" id="_492738744" fill="#838383"></path>
                                    <path d="M3.30851368,3.43881667 C3.37683722,3.37120483 3.41909777,3.277826 3.41909777,3.174709 C3.41909777,3.071592 3.37683669,2.97818983 3.30851368,2.91060133 C3.24021373,2.84301283 3.14585137,2.80119192 3.04164893,2.80119192 C2.93742349,2.80119192 2.84306114,2.84301278 2.77476118,2.91060133 C2.70646122,2.97818983 2.66420008,3.07156925 2.66420008,3.174709 C2.66420008,3.277826 2.70646116,3.37120483 2.77476118,3.43881667 C2.84306114,3.50640517 2.93742349,3.54822608 3.04164893,3.54822608 C3.14585137,3.54822608 3.24021314,3.50640523 3.30851368,3.43881667 Z" id="_492738456" fill="#A7A7A7"></path>
                                    <path d="M7.99488842,3.17468333 C7.99488842,3.07156633 7.95262734,2.97816417 7.88432733,2.91057567 C7.81602737,2.84298717 7.72164202,2.80116625 7.61743958,2.80116625 C7.51323714,2.80116625 7.41887537,2.84298711 7.35055183,2.91057567 C7.28225187,2.97816417 7.23999074,3.07154358 7.23999074,3.17468333 C7.23999074,3.27780033 7.28225181,3.3712025 7.35055183,3.438791 C7.41887537,3.5063795 7.51323714,3.54820042 7.61743958,3.54820042 C7.72164202,3.54820042 7.81602737,3.50637956 7.88432733,3.438791 C7.95262728,3.3712025 7.99488842,3.27782308 7.99488842,3.17468333 Z" id="_492738192" fill="#A7A7A7"></path>
                                </g>
                            </g>
                        </g>
                    </g>
                    <g id="INICIO" transform="translate(16.000000, 7.000000)">
                        <rect id="Rectangle" x="0" y="0" width="40" height="40"></rect>
                        <text font-family="Palatino-Roman, Palatino" font-size="10" font-weight="normal" letter-spacing="0.833333333" fill="#121619">
                            <tspan x="1" y="47">INICIO</tspan>
                        </text>
                    </g>
                </g>
            </g>
        </g>
    </g>
</svg>